<?xml version="1.0" encoding="utf-8"?>
<!-- Generator: Adobe Illustrator 24.1.3, SVG Export Plug-In . SVG Version: 6.00 Build 0)  -->
<svg version="1.1" xmlns="http://www.w3.org/2000/svg" xmlns:xlink="http://www.w3.org/1999/xlink" x="0px" y="0px"
	 viewBox="0 0 3202 242" style="enable-background:new 0 0 3202 242;" xml:space="preserve">
<style type="text/css">
	.st0{fill:#484848;stroke:#000000;stroke-miterlimit:10;}
	.st1{fill:#484848;}
	.st2{fill:#E9E9E9;stroke:#000000;stroke-miterlimit:10;}
	.st3{opacity:0.5;fill:#484848;}
	.st4{opacity:0.5;fill:#E9E9E9;stroke:#000000;stroke-miterlimit:10;}
</style>
<g id="Background">
	<path class="st0" d="M3224.5,66.5V249h-3242V59.3c18.9-1.2,38.1-1.8,57.5-1.8c7.4,0,14.8,0.1,22.2,0.3c1.7,0,3.4,0.1,5.1,0.1
		c1.1,0,2.3,0.1,3.4,0.1c1.1,0,2.3,0.1,3.4,0.1c0.7,0,1.5,0,2.2,0.1c2.9,0.1,5.9,0.2,8.8,0.4c1.6,0.1,3.2,0.2,4.8,0.3
		c1.7,0.1,3.4,0.2,5.1,0.3c2.9,0.2,5.8,0.4,8.8,0.6c0.8,0,1.5,0.1,2.2,0.2c2.1,0.2,4.1,0.3,6.2,0.5c0.2,0,0.4,0,0.6,0.1
		c2.1,0.2,4.2,0.3,6.3,0.5c1.9,0.2,3.8,0.3,5.7,0.5c1.3,0.1,2.5,0.2,3.8,0.3c2.7,0.3,5.3,0.5,7.9,0.8c1.2,0.1,2.4,0.3,3.6,0.4
		c1.5,0.2,3.1,0.3,4.6,0.5c1.5,0.2,3.1,0.4,4.6,0.5c1.5,0.2,3.1,0.4,4.6,0.6c1.5,0.2,3,0.4,4.6,0.6c1.2,0.1,2.4,0.3,3.6,0.5
		c0.3,0,0.6,0.1,0.9,0.1c1.1,0.2,2.1,0.3,3.2,0.5c0.1,0,0.2,0,0.4,0c1.2,0.2,2.4,0.3,3.7,0.5c0.2,0,0.4,0.1,0.7,0.1
		c1.7,0.3,3.4,0.5,5.1,0.8c1.7,0.3,3.4,0.5,5.1,0.8c1.2,0.2,2.5,0.4,3.7,0.6c1.6,0.3,3.2,0.5,4.8,0.8c1.6,0.3,3.2,0.5,4.8,0.8
		c2.4,0.4,4.7,0.8,7.1,1.3c4,0.7,7.9,1.5,11.8,2.3c1.2,0.2,2.3,0.5,3.4,0.7c2.3,0.5,4.5,0.9,6.8,1.4c1.3,0.3,2.6,0.6,4,0.9
		c2.2,0.5,4.4,1,6.5,1.5c1.3,0.3,2.7,0.6,4.1,0.9s2.7,0.6,4,1c0.3,0.1,0.6,0.2,1,0.2c1.9,0.5,3.9,0.9,5.8,1.4
		c0.4,0.1,0.9,0.2,1.3,0.3c1,0.2,1.9,0.5,2.9,0.7c2.4,0.6,4.8,1.2,7.2,1.9c1.1,0.3,2.2,0.6,3.3,0.9c1.8,0.5,3.6,1,5.5,1.5
		c1.8,0.5,3.6,1,5.4,1.6c1.9,0.5,3.7,1.1,5.6,1.6c0.9,0.3,1.7,0.5,2.6,0.8c1.6,0.5,3.2,1,4.7,1.5c0.6,0.2,1.3,0.4,2,0.6
		c1,0.3,1.9,0.6,2.9,0.9c1.8,0.6,3.6,1.1,5.3,1.7c1.8,0.6,3.5,1.2,5.3,1.8c1.4,0.5,2.7,0.9,4.1,1.4c0.6,0.2,1.2,0.4,1.9,0.6
		c1.5,0.5,3,1,4.5,1.6c0.9,0.3,1.7,0.6,2.6,0.9c0.9,0.3,1.7,0.6,2.6,0.9c1.6,0.6,3.2,1.2,4.8,1.8c0,0,0.1,0,0.1,0
		c1.6,0.6,3.2,1.2,4.8,1.8c1.4,0.5,2.8,1.1,4.2,1.6c0.5,0.2,0.9,0.4,1.4,0.5c1.7,0.7,3.3,1.3,5,2c1.5,0.6,3.1,1.3,4.6,1.9
		c5.1,2.1,10.1,4.2,15,6.4c1,0.4,1.9,0.9,2.9,1.3c1.5,0.7,3,1.4,4.5,2.1c2.2,1,4.5,2.1,6.7,3.1c5,2.4,10,4.9,14.9,7.4
		c31.4,14.8,65.9,25.5,102.5,31.2c20.3,3.2,41.1,4.9,62.5,4.9c48.4,0,94.4-8.5,136-23.9c20.5-12,43-23.1,67-32.9
		c3.6-1.5,7.3-3,11-4.4c3.7-1.5,7.5-2.9,11.3-4.3c1.5-0.5,2.9-1.1,4.4-1.6c0.9-0.3,1.8-0.6,2.6-0.9c0,0,0,0,0.1,0
		c1.5-0.5,3-1,4.5-1.6c1.6-0.5,3.2-1.1,4.8-1.6c0.4-0.1,0.8-0.3,1.2-0.4c1.9-0.6,3.7-1.2,5.6-1.8h0c0.5-0.2,1-0.3,1.5-0.5
		c75-24.2,162.1-38,255-38c91.5,0,177.3,13.4,251.5,36.9c0.7,0.2,1.4,0.4,2,0.6c28,9,54.3,19.3,78.6,31c5,2.4,10,4.9,14.9,7.4
		c48.8,22.9,105.1,36,165,36c41.7,0,81.6-6.3,118.5-17.9c16.1-5.1,31.7-11.1,46.5-18.1c4.9-2.5,9.8-5,14.9-7.4
		c2.4-1.2,4.9-2.3,7.4-3.5c1.2-0.5,2.4-1.1,3.6-1.6c0.9-0.4,1.7-0.8,2.6-1.2c1.2-0.5,2.3-1,3.5-1.5c1.4-0.6,2.9-1.3,4.4-1.9
		c1.4-0.6,2.9-1.3,4.4-1.9c1.5-0.6,2.9-1.2,4.4-1.8c2-0.8,3.9-1.6,5.9-2.4c1.4-0.5,2.7-1.1,4.1-1.6c1.9-0.8,3.8-1.5,5.8-2.2
		c1.2-0.5,2.4-0.9,3.6-1.4c1.6-0.6,3.2-1.2,4.7-1.7c1.6-0.6,3.2-1.1,4.8-1.7c1.6-0.6,3.2-1.1,4.8-1.7c2-0.7,4-1.4,6.1-2.1
		c1.2-0.4,2.4-0.8,3.6-1.2c2.4-0.8,4.8-1.5,7.1-2.3c1-0.3,2-0.6,2.9-0.9c5.1-1.6,10.3-3.2,15.5-4.6c1.1-0.3,2.3-0.6,3.4-1
		c4.8-1.3,9.7-2.7,14.6-3.9c0.3-0.1,0.5-0.1,0.8-0.2c2.4-0.6,4.8-1.2,7.2-1.8c1.6-0.4,3.2-0.8,4.8-1.2c0.9-0.2,1.9-0.5,2.9-0.7
		c1.9-0.5,3.8-0.9,5.8-1.3c1.9-0.4,3.8-0.9,5.8-1.3c1.9-0.4,3.9-0.8,5.8-1.3c1.4-0.3,2.8-0.6,4.1-0.9c0.7-0.1,1.4-0.3,2.1-0.4
		c1.3-0.3,2.5-0.5,3.8-0.8c1.3-0.3,2.5-0.5,3.8-0.8c2.1-0.4,4.2-0.8,6.3-1.2c1-0.2,2-0.4,3-0.6c2.2-0.4,4.4-0.8,6.6-1.2
		c5.3-0.9,10.7-1.8,16.2-2.6c0.1,0,0.1,0,0.2,0c1.4-0.2,2.8-0.4,4.1-0.6c1.8-0.3,3.5-0.5,5.3-0.8c1.3-0.2,2.5-0.4,3.8-0.5
		c1-0.1,2-0.3,2.9-0.4c3-0.4,6-0.8,9-1.2c1.5-0.2,3-0.4,4.5-0.5c1.2-0.2,2.4-0.3,3.7-0.4c0.2,0,0.4,0,0.6-0.1
		c2.4-0.3,4.8-0.5,7.1-0.8c2.5-0.3,5.1-0.5,7.7-0.8c0.2,0,0.5,0,0.7-0.1c1.7-0.2,3.3-0.3,4.9-0.5c1.3-0.1,2.6-0.2,3.9-0.3
		c1.3-0.1,2.6-0.2,3.9-0.3c1.2-0.1,2.4-0.2,3.7-0.3c1.1-0.1,2.2-0.2,3.3-0.3c0.5,0,1-0.1,1.6-0.1c0.9-0.1,1.8-0.1,2.7-0.2
		c2.4-0.2,4.8-0.3,7.2-0.5c0,0,0.1,0,0.1,0c2.4-0.1,4.8-0.3,7.2-0.4c0.9,0,1.7-0.1,2.6-0.1c1.4-0.1,2.9-0.1,4.3-0.2
		c4-0.2,8.1-0.3,12.2-0.5c3.3-0.1,6.5-0.2,9.8-0.3c0.8,0,1.7,0,2.5,0c0.3,0,0.6,0,0.9,0c1.3,0,2.7-0.1,4-0.1c4,0,7.9-0.1,11.9-0.1
		c6.6,0,13.1,0.1,19.6,0.2c2.1,0,4.1,0.1,6.2,0.2c1.4,0,2.8,0.1,4.3,0.1c1.2,0,2.4,0.1,3.5,0.1c1.9,0.1,3.7,0.1,5.6,0.2
		c1.9,0.1,3.7,0.2,5.5,0.3c2.2,0.1,4.4,0.2,6.6,0.3c0.9,0,1.9,0.1,2.8,0.2c1.9,0.1,3.7,0.2,5.6,0.4c1.4,0.1,2.8,0.2,4.2,0.3
		c1.4,0.1,2.8,0.2,4.2,0.3c0.3,0,0.5,0,0.8,0.1c1.8,0.1,3.6,0.3,5.3,0.4c0.8,0,1.5,0.1,2.2,0.2c0.8,0.1,1.7,0.1,2.5,0.2
		c3.3,0.3,6.6,0.6,9.9,0.9c5.5,0.5,10.9,1.1,16.4,1.8c2.9,0.3,5.8,0.7,8.7,1.1c1.1,0.1,2.2,0.3,3.3,0.4c0.4,0,0.7,0.1,1,0.1
		c1.1,0.1,2.1,0.3,3.2,0.4c6.8,0.9,13.5,1.9,20.2,3c2.6,0.4,5.1,0.8,7.7,1.3c1.2,0.2,2.4,0.4,3.6,0.6c1.6,0.3,3.3,0.6,4.9,0.9
		c2.3,0.4,4.6,0.8,7,1.3c2.6,0.5,5.2,1,7.8,1.5c2.6,0.5,5.1,1,7.7,1.6c1.3,0.3,2.6,0.5,3.8,0.8c1.3,0.3,2.5,0.5,3.8,0.8
		c2.5,0.6,5,1.1,7.5,1.7c1.2,0.3,2.4,0.6,3.6,0.8c1.2,0.3,2.4,0.6,3.6,0.9c0.4,0.1,0.7,0.2,1.1,0.3c1.1,0.3,2.2,0.5,3.3,0.8
		c1.1,0.3,2.2,0.5,3.3,0.8c2.4,0.6,4.9,1.3,7.3,1.9c2.6,0.7,5.1,1.4,7.6,2.1c0.1,0,0.1,0,0.2,0c2.2,0.6,4.4,1.2,6.6,1.9
		c0.5,0.1,0.9,0.3,1.4,0.4c2,0.6,4.1,1.2,6.1,1.8c0.1,0,0.1,0,0.2,0c2.3,0.7,4.5,1.4,6.8,2.1c2.4,0.7,4.7,1.5,7,2.2h0
		c4.1,1.3,8.3,2.7,12.3,4.1c1.8,0.6,3.7,1.3,5.5,1.9c1.9,0.7,3.8,1.3,5.7,2c0.5,0.2,0.9,0.3,1.4,0.5c1.5,0.6,3.1,1.1,4.6,1.7
		c1,0.4,2.1,0.8,3.1,1.2c1.9,0.7,3.7,1.4,5.6,2.1c1.1,0.4,2.1,0.8,3.2,1.2c2.5,1,4.9,2,7.3,3c1.3,0.5,2.5,1,3.7,1.5
		c1.7,0.7,3.4,1.5,5.1,2.2c0.1,0.1,0.3,0.1,0.4,0.2c0.6,0.2,1.1,0.5,1.7,0.7c0.5,0.2,1,0.4,1.5,0.7c1.2,0.5,2.5,1.1,3.7,1.6
		c13.1,5.9,25.7,12.1,37.7,18.6c45.7,19.3,97.3,30.2,151.9,30.2s106.3-10.9,151.9-30.2c12-6.6,24.6-12.8,37.7-18.6
		c1.6-0.7,3.1-1.4,4.7-2.1c0.7-0.3,1.4-0.6,2-0.9c1.6-0.7,3.1-1.4,4.7-2c1.1-0.5,2.2-0.9,3.2-1.4c1.5-0.7,3.1-1.3,4.7-1.9
		c1.3-0.5,2.5-1,3.8-1.5c1.1-0.5,2.2-0.9,3.4-1.3c1.7-0.7,3.4-1.3,5.2-2c1.1-0.4,2.3-0.9,3.4-1.3c1.4-0.5,2.7-1,4.1-1.5
		c1.3-0.5,2.7-1,4-1.5c5.4-2,10.9-3.8,16.5-5.7c1.4-0.5,2.8-0.9,4.2-1.4h0c2.3-0.8,4.7-1.5,7.1-2.2c2.4-0.7,4.7-1.4,7.1-2.2
		c2.4-0.7,4.8-1.4,7.2-2.1c2.1-0.6,4.3-1.2,6.4-1.8c1-0.3,2.1-0.6,3.1-0.9c1.9-0.5,3.8-1,5.8-1.5c2.2-0.6,4.5-1.2,6.7-1.7
		c0,0,0,0,0.1,0c2.4-0.6,4.8-1.2,7.2-1.8c0.1,0,0.2-0.1,0.4-0.1c2.3-0.6,4.7-1.1,7-1.7c0.1,0,0.2,0,0.3-0.1c2.5-0.6,5-1.2,7.6-1.7
		c2.3-0.5,4.6-1,6.9-1.5c0.6-0.1,1.2-0.2,1.8-0.4c1.5-0.3,3-0.6,4.5-0.9c0.2,0,0.4-0.1,0.6-0.1c0.8-0.2,1.5-0.3,2.3-0.5
		c2.3-0.5,4.7-0.9,7-1.4c2.2-0.4,4.3-0.8,6.5-1.2c0.3,0,0.6-0.1,0.9-0.2c0.6-0.1,1.1-0.2,1.7-0.3c2.2-0.4,4.3-0.8,6.5-1.2
		c0.1,0,0.3,0,0.4-0.1c0.3-0.1,0.7-0.1,1-0.2c2.2-0.4,4.4-0.7,6.7-1.1c2-0.3,4-0.6,6-0.9c0.3,0,0.5-0.1,0.8-0.1
		c1.5-0.2,3-0.5,4.6-0.7c1.5-0.2,3.1-0.5,4.6-0.7c0.1,0,0.3,0,0.4-0.1l5.3-0.7c1.8-0.2,3.5-0.5,5.3-0.7c1.8-0.2,3.5-0.5,5.3-0.7
		c2.8-0.3,5.5-0.7,8.3-1c1.3-0.2,2.7-0.3,4-0.4c2.7-0.3,5.5-0.6,8.3-0.9c0.9-0.1,1.8-0.2,2.6-0.3c1.2-0.1,2.4-0.2,3.6-0.3
		c0.9-0.1,1.8-0.2,2.7-0.2c0.9-0.1,1.8-0.2,2.7-0.2c0.3,0,0.6,0,0.9-0.1c1.5-0.1,3.1-0.3,4.6-0.4c2.2-0.2,4.3-0.3,6.5-0.5
		c1.2-0.1,2.4-0.2,3.6-0.3c2-0.1,4-0.3,6-0.4c2-0.1,4-0.2,6-0.4c0.2,0,0.5,0,0.7,0c1.6-0.1,3.2-0.2,4.8-0.3c1.8-0.1,3.6-0.2,5.5-0.2
		c0.1,0,0.3,0,0.4,0c2.1-0.1,4.2-0.2,6.3-0.2c0.1,0,0.3,0,0.4,0c2-0.1,4.1-0.1,6.1-0.2c0.6,0,1.3,0,1.9,0c1.9,0,3.8-0.1,5.7-0.1
		c0.3,0,0.7,0,1,0c2,0,4-0.1,6.1-0.1c1.9,0,3.8,0,5.6-0.1c1.9,0,3.8,0,5.6,0C3141,57.5,3183.8,60.6,3224.5,66.5z"/>
	<path class="st1" d="M1538.5,249H575.5c23.9-39,62.6-74.2,112.5-103.4c20.5-12,43-23.1,67-32.9c3.6-1.5,7.3-3,11-4.4
		c3.7-1.5,7.5-2.9,11.3-4.3c1.5-0.5,2.9-1.1,4.4-1.6c0.9-0.3,1.8-0.6,2.6-0.9c0,0,0,0,0.1,0c1.5-0.5,3-1,4.5-1.6
		c1.6-0.5,3.2-1.1,4.8-1.6c0.4-0.1,0.8-0.3,1.2-0.4c1.9-0.6,3.7-1.2,5.6-1.8h0c0.5-0.2,1-0.3,1.5-0.5c75-24.2,162.1-38,255-38
		c91.5,0,177.3,13.4,251.5,36.9c0.7,0.2,1.4,0.4,2,0.6c28,9,54.3,19.3,78.6,31c5,2.4,10,4.9,14.9,7.4
		C1464.5,164.9,1511.3,204.5,1538.5,249z"/>
	<path class="st2" d="M1404,133.5c-5-2.4-10-4.8-14.9-7.4C1394.1,128.5,1399.1,131,1404,133.5z"/>
	<path class="st2" d="M1748.9,126.1c-4.9,2.6-9.8,5-14.9,7.4C1738.9,131,1743.9,128.5,1748.9,126.1z"/>
	<path class="st1" d="M2562.5,249h-963.1c19.8-32.4,49.9-62.1,88-87.9c14.4-9.8,29.9-19,46.5-27.6c4.9-2.5,9.8-5,14.9-7.4
		c2.4-1.2,4.9-2.3,7.4-3.5c1.2-0.5,2.4-1.1,3.6-1.6c0.9-0.4,1.7-0.8,2.6-1.2c1.2-0.5,2.3-1,3.5-1.5c1.4-0.6,2.9-1.3,4.4-1.9
		c1.4-0.6,2.9-1.3,4.4-1.9c1.5-0.6,2.9-1.2,4.4-1.8c2-0.8,3.9-1.6,5.9-2.4c1.4-0.5,2.7-1.1,4.1-1.6c1.9-0.8,3.8-1.5,5.8-2.2
		c1.2-0.5,2.4-0.9,3.6-1.4c1.6-0.6,3.2-1.2,4.7-1.7c1.6-0.6,3.2-1.1,4.8-1.7c1.6-0.6,3.2-1.1,4.8-1.7c2-0.7,4-1.4,6.1-2.1
		c1.2-0.4,2.4-0.8,3.6-1.2c2.4-0.8,4.8-1.5,7.1-2.3c1-0.3,2-0.6,2.9-0.9c5.1-1.6,10.3-3.2,15.5-4.6c1.1-0.3,2.3-0.6,3.4-1
		c4.8-1.4,9.7-2.7,14.6-3.9c0.3-0.1,0.5-0.1,0.8-0.2c2.4-0.6,4.8-1.2,7.2-1.8c1.6-0.4,3.2-0.8,4.8-1.2c0.9-0.2,1.9-0.5,2.9-0.7
		c1.9-0.5,3.8-0.9,5.8-1.3c1.9-0.5,3.8-0.9,5.8-1.3c1.9-0.4,3.9-0.8,5.8-1.3c1.4-0.3,2.8-0.6,4.1-0.9c0.7-0.1,1.4-0.3,2.1-0.4
		c1.3-0.3,2.5-0.5,3.8-0.8c1.3-0.3,2.5-0.5,3.8-0.8c2.1-0.4,4.2-0.8,6.3-1.2c1-0.2,2-0.4,3-0.6c2.2-0.4,4.4-0.8,6.6-1.2
		c5.3-0.9,10.7-1.8,16.2-2.6c0.1,0,0.1,0,0.2,0c1.4-0.2,2.8-0.4,4.1-0.6c1.8-0.3,3.5-0.5,5.3-0.8c1.3-0.2,2.5-0.4,3.8-0.5
		c1-0.1,2-0.3,2.9-0.4c3-0.4,6-0.8,9-1.2c1.5-0.2,3-0.4,4.5-0.5c1.2-0.2,2.4-0.3,3.7-0.4c0.2,0,0.4,0,0.6-0.1
		c2.4-0.3,4.8-0.5,7.1-0.8c2.5-0.3,5.1-0.5,7.7-0.8c0.2,0,0.5,0,0.7-0.1c1.7-0.2,3.3-0.3,4.9-0.5c1.3-0.1,2.6-0.2,3.9-0.3
		c1.3-0.1,2.6-0.2,3.9-0.3c1.2-0.1,2.4-0.2,3.7-0.3c1.1-0.1,2.2-0.2,3.3-0.3c0.5,0,1-0.1,1.6-0.1c0.9-0.1,1.8-0.1,2.7-0.2
		c2.4-0.2,4.8-0.3,7.2-0.5c0,0,0.1,0,0.1,0c2.4-0.1,4.8-0.3,7.2-0.4c0.9,0,1.7-0.1,2.6-0.1c1.4-0.1,2.9-0.1,4.3-0.2
		c4-0.2,8.1-0.3,12.2-0.5c3.3-0.1,6.5-0.2,9.8-0.3c0.8,0,1.7,0,2.5,0c0.3,0,0.6,0,0.9,0c1.3,0,2.7-0.1,4-0.1c4,0,7.9-0.1,11.9-0.1
		c6.6,0,13.1,0.1,19.6,0.2c2.1,0,4.1,0.1,6.2,0.2c1.4,0,2.8,0.1,4.3,0.1c1.2,0,2.4,0.1,3.5,0.1c1.9,0.1,3.7,0.1,5.6,0.2
		c1.9,0.1,3.7,0.2,5.5,0.3c2.2,0.1,4.4,0.2,6.6,0.3c0.9,0,1.9,0.1,2.8,0.2c1.9,0.1,3.7,0.2,5.6,0.4c1.4,0.1,2.8,0.2,4.2,0.3
		c1.4,0.1,2.8,0.2,4.2,0.3c0.3,0,0.5,0,0.8,0.1c1.8,0.1,3.6,0.3,5.3,0.4c0.8,0,1.5,0.1,2.2,0.2c0.8,0.1,1.7,0.1,2.5,0.2
		c3.3,0.3,6.6,0.6,9.9,0.9c5.5,0.5,10.9,1.1,16.4,1.8c2.9,0.3,5.8,0.7,8.7,1.1c1.1,0.1,2.2,0.3,3.3,0.4c0.4,0,0.7,0.1,1,0.1
		c1.1,0.1,2.1,0.3,3.2,0.4c6.8,0.9,13.5,1.9,20.2,3c2.6,0.4,5.1,0.8,7.7,1.3c1.2,0.2,2.4,0.4,3.6,0.6c1.6,0.3,3.3,0.6,4.9,0.9
		c2.3,0.4,4.6,0.8,7,1.3c2.6,0.5,5.2,1,7.8,1.5c2.6,0.5,5.1,1,7.7,1.6c1.3,0.3,2.6,0.5,3.8,0.8c1.3,0.3,2.5,0.5,3.8,0.8
		c2.5,0.6,5,1.1,7.5,1.7c1.2,0.3,2.4,0.6,3.6,0.8c1.2,0.3,2.4,0.6,3.6,0.9c0.4,0.1,0.7,0.2,1.1,0.3c1.1,0.3,2.2,0.5,3.3,0.8
		c1.1,0.3,2.2,0.5,3.3,0.8c2.4,0.6,4.9,1.3,7.3,1.9c2.6,0.7,5.1,1.4,7.6,2.1c0.1,0,0.1,0,0.2,0c2.2,0.6,4.4,1.2,6.6,1.9
		c0.5,0.1,0.9,0.3,1.4,0.4c2,0.6,4.1,1.2,6.1,1.8c0.1,0,0.1,0,0.2,0c2.3,0.7,4.5,1.4,6.8,2.1c2.4,0.7,4.7,1.5,7,2.2h0
		c4.1,1.3,8.3,2.7,12.3,4.1c1.8,0.6,3.7,1.3,5.5,1.9c1.9,0.7,3.8,1.3,5.7,2c0.5,0.2,0.9,0.3,1.4,0.5c1.5,0.6,3.1,1.1,4.6,1.7
		c1,0.4,2.1,0.8,3.1,1.2c1.9,0.7,3.7,1.4,5.6,2.1c1.1,0.4,2.1,0.8,3.2,1.2c2.5,1,4.9,2,7.3,3c1.3,0.5,2.5,1,3.7,1.5
		c1.7,0.7,3.4,1.5,5.1,2.2c0.1,0.1,0.3,0.1,0.4,0.2c0.6,0.2,1.1,0.5,1.7,0.7c0.5,0.2,1,0.4,1.5,0.7c1.2,0.5,2.5,1.1,3.7,1.6
		c13.1,5.9,25.7,12.1,37.7,18.6C2493.2,168.9,2536.6,206.7,2562.5,249z"/>
	<path class="st2" d="M2399.3,119.7c13.1,5.9,25.7,12.1,37.7,18.6C2424,132.8,2411.4,126.6,2399.3,119.7z"/>
	<path class="st2" d="M2778.7,119.7c-12,6.9-24.6,13.1-37.7,18.6C2752.9,131.8,2765.5,125.6,2778.7,119.7z"/>
	<path class="st1" d="M3578.5,249h-963.1c25.9-42.3,69.3-80.1,125.5-110.7c12-6.6,24.6-12.8,37.7-18.6c1.6-0.7,3.1-1.4,4.7-2.1
		c0.7-0.3,1.4-0.6,2-0.9c1.6-0.7,3.1-1.4,4.7-2c1.1-0.5,2.2-0.9,3.2-1.4c1.5-0.7,3.1-1.3,4.7-1.9c1.3-0.5,2.5-1,3.8-1.5
		c1.1-0.5,2.2-0.9,3.4-1.3c1.7-0.7,3.4-1.3,5.2-2c1.1-0.4,2.3-0.9,3.4-1.3c1.4-0.5,2.7-1,4.1-1.5c1.3-0.5,2.7-1,4-1.5
		c5.4-2,10.9-3.8,16.5-5.7c1.4-0.5,2.8-0.9,4.2-1.4h0c2.3-0.8,4.7-1.5,7.1-2.2c2.4-0.7,4.7-1.4,7.1-2.2c2.4-0.7,4.8-1.4,7.2-2.1
		c2.1-0.6,4.3-1.2,6.4-1.8c1-0.3,2.1-0.6,3.1-0.9c1.9-0.5,3.8-1,5.8-1.5c2.2-0.6,4.5-1.2,6.7-1.7c0,0,0,0,0.1,0
		c2.4-0.6,4.8-1.2,7.2-1.8c0.1,0,0.2-0.1,0.4-0.1c2.3-0.6,4.7-1.1,7-1.7c0.1,0,0.2,0,0.3-0.1c2.5-0.6,5-1.2,7.6-1.7
		c2.3-0.5,4.6-1,6.9-1.5c0.6-0.1,1.2-0.2,1.8-0.4c1.5-0.3,3-0.6,4.5-0.9c0.2,0,0.4-0.1,0.6-0.1c0.8-0.2,1.5-0.3,2.3-0.5
		c2.3-0.5,4.7-0.9,7-1.4c2.2-0.4,4.3-0.8,6.5-1.2c0.3,0,0.6-0.1,0.9-0.2c0.6-0.1,1.1-0.2,1.7-0.3c2.2-0.4,4.3-0.8,6.5-1.2
		c0.1,0,0.3,0,0.4-0.1c0.3-0.1,0.7-0.1,1-0.2c2.2-0.4,4.4-0.7,6.7-1.1c2-0.3,4-0.6,6-0.9c0.3,0,0.5-0.1,0.8-0.1
		c1.5-0.2,3-0.5,4.6-0.7c1.5-0.2,3.1-0.5,4.6-0.7c0.1,0,0.3,0,0.4-0.1l5.3-0.7c1.8-0.2,3.5-0.5,5.3-0.7c1.8-0.2,3.5-0.5,5.3-0.7
		c2.8-0.3,5.5-0.7,8.3-1c1.3-0.2,2.7-0.3,4-0.4c2.7-0.3,5.5-0.6,8.3-0.9c0.9-0.1,1.8-0.2,2.6-0.3c1.2-0.1,2.4-0.2,3.6-0.3
		c0.9-0.1,1.8-0.2,2.7-0.2c0.9-0.1,1.8-0.2,2.7-0.2c0.3,0,0.6,0,0.9-0.1c1.5-0.1,3.1-0.3,4.6-0.4c2.2-0.2,4.3-0.3,6.5-0.5
		c1.2-0.1,2.4-0.2,3.6-0.3c2-0.1,4-0.3,6-0.4c2-0.1,4-0.2,6-0.4c0.2,0,0.5,0,0.7,0c1.6-0.1,3.2-0.2,4.8-0.3c1.8-0.1,3.6-0.2,5.5-0.2
		c0.1,0,0.3,0,0.4,0c2.1-0.1,4.2-0.2,6.3-0.2c0.1,0,0.3,0,0.4,0c2-0.1,4.1-0.1,6.1-0.2c0.6,0,1.3,0,1.9,0c1.9,0,3.8-0.1,5.7-0.1
		c0.3,0,0.7,0,1,0c2,0,4-0.1,6.1-0.1c1.9,0,3.8,0,5.6-0.1c1.9,0,3.8,0,5.6,0c44,0,86.8,3.1,127.5,9c44.7,6.4,87,16.1,126,28.6
		C3456.6,129,3538.5,183.6,3578.5,249z"/>
	<path class="st1" d="M521.5,249h-963.1c39.2-64,118.6-117.8,221.5-151.8c60.5-20,129.1-33.3,202.5-37.9c18.9-1.2,38.1-1.8,57.5-1.8
		c7.4,0,14.8,0.1,22.2,0.3c1.7,0,3.4,0.1,5.1,0.1c1.1,0,2.3,0.1,3.4,0.1c1.1,0,2.3,0.1,3.4,0.1c0.7,0,1.5,0,2.2,0.1
		c2.9,0.1,5.9,0.2,8.8,0.4c1.6,0.1,3.2,0.2,4.8,0.3c1.7,0.1,3.4,0.2,5.1,0.3c2.9,0.2,5.8,0.4,8.8,0.6c0.8,0,1.5,0.1,2.2,0.2
		c2.1,0.2,4.1,0.3,6.2,0.5c0.2,0,0.4,0,0.6,0.1c2.1,0.2,4.2,0.3,6.3,0.5c1.9,0.2,3.8,0.3,5.7,0.5c1.3,0.1,2.5,0.2,3.8,0.3
		c2.7,0.3,5.3,0.5,7.9,0.8c1.2,0.1,2.4,0.3,3.6,0.4c1.5,0.2,3.1,0.3,4.6,0.5c1.5,0.2,3.1,0.4,4.6,0.5c1.5,0.2,3.1,0.4,4.6,0.6
		c1.5,0.2,3,0.4,4.6,0.6c1.2,0.1,2.4,0.3,3.6,0.5c0.3,0,0.6,0.1,0.9,0.1c1.1,0.2,2.1,0.3,3.2,0.5c0.1,0,0.2,0,0.4,0
		c1.2,0.2,2.4,0.3,3.7,0.5c0.2,0,0.4,0.1,0.7,0.1c1.7,0.3,3.4,0.5,5.1,0.8c1.7,0.3,3.4,0.5,5.1,0.8c1.2,0.2,2.5,0.4,3.7,0.6
		c1.6,0.3,3.2,0.5,4.8,0.8c1.6,0.3,3.2,0.5,4.8,0.8c2.4,0.4,4.7,0.8,7.1,1.3c4,0.7,7.9,1.5,11.8,2.3c1.2,0.2,2.3,0.5,3.4,0.7
		c2.3,0.5,4.5,0.9,6.8,1.4c1.3,0.3,2.6,0.6,4,0.9c2.2,0.5,4.4,1,6.5,1.5c1.3,0.3,2.7,0.6,4.1,0.9s2.7,0.6,4,1c0.3,0.1,0.6,0.2,1,0.2
		c1.9,0.5,3.9,0.9,5.8,1.4c0.4,0.1,0.9,0.2,1.3,0.3c1,0.2,1.9,0.5,2.9,0.7c2.4,0.6,4.8,1.2,7.2,1.9c1.1,0.3,2.2,0.6,3.3,0.9
		c1.8,0.5,3.6,1,5.5,1.5c1.8,0.5,3.6,1,5.4,1.6c1.9,0.5,3.7,1.1,5.6,1.6c0.9,0.3,1.7,0.5,2.6,0.8c1.6,0.5,3.2,1,4.7,1.5
		c0.6,0.2,1.3,0.4,2,0.6c1,0.3,1.9,0.6,2.9,0.9c1.8,0.6,3.6,1.1,5.3,1.7c1.8,0.6,3.5,1.2,5.3,1.8c1.4,0.5,2.7,0.9,4.1,1.4
		c0.6,0.2,1.2,0.4,1.9,0.6c1.5,0.5,3,1,4.5,1.6c0.9,0.3,1.7,0.6,2.6,0.9c0.9,0.3,1.7,0.6,2.6,0.9c1.6,0.6,3.2,1.2,4.8,1.8
		c0,0,0.1,0,0.1,0c1.6,0.6,3.2,1.2,4.8,1.8c1.4,0.5,2.8,1.1,4.2,1.6c0.5,0.2,0.9,0.4,1.4,0.5c1.7,0.7,3.3,1.3,5,2
		c1.5,0.6,3.1,1.3,4.6,1.9c5.1,2.1,10.1,4.2,15,6.4c1,0.4,1.9,0.9,2.9,1.3c1.5,0.7,3,1.4,4.5,2.1c2.2,1,4.5,2.1,6.7,3.1
		c5,2.4,10,4.9,14.9,7.4c41.2,21.3,75.9,46.5,102.5,74.3C502.1,221,512.8,234.7,521.5,249z"/>
	<path class="st2" d="M372.1,126.1c5,2.4,10,4.9,14.9,7.4C381.9,131.1,377,128.6,372.1,126.1z"/>
</g>
<g id="Layer_3">
	<path class="st3" d="M1687.5,151.6V249h-3242V59.3c18.9-1.2,38.1-1.8,57.5-1.8c126.9,0,243,25.8,332.1,68.6c5,2.4,10,4.9,14.9,7.4
		c48.8,22.9,105.1,36,165,36c48.4,0,94.4-8.5,136-23.9c20.5-12,43-23.1,67-32.9c84.4-34.7,188.9-55.2,302-55.2
		c95,0,183.9,14.5,260,39.7c25.6,8.5,49.7,18.2,72.1,28.9c5,2.4,10,4.9,14.9,7.4c35.1,16.5,74.1,27.9,115.5,33c16.2,2,32.7,3,49.5,3
		c60,0,116.3-13.1,165-36c4.9-2.5,9.8-5,14.9-7.4c24.7-11.9,51.6-22.4,80.1-31.5C366.3,71,452.3,57.5,544,57.5
		c93.6,0,181.2,14,256.5,38.5h0c21.7,7,42.3,15,61.8,23.7c13.1,5.9,25.7,12.1,37.7,18.6c30.3,12.8,63.3,21.9,98.1,26.6
		c0,0,0,0,0.1,0h0c0.1,0,0.2,0,0.3,0c17.4,2.3,35.3,3.5,53.5,3.5c54.7,0,106.3-10.9,151.9-30.2c12-6.6,24.6-12.8,37.7-18.6
		c21-9.4,43.3-17.8,66.8-25.3c0.7,0.2,1.4,0.4,2,0.6c28,9,54.3,19.3,78.6,31c5,2.4,10,4.9,14.9,7.4c48.8,22.9,105.1,36,165,36
		C1610.7,169.5,1650.6,163.2,1687.5,151.6z"/>
</g>
<g id="Layer_2">
	<path class="st3" d="M3731.5,66.5V249h-3242v-84.4c20.3,3.2,41.1,4.9,62.5,4.9c48.4,0,94.4-8.5,136-23.9c20.5-12,43-23.1,67-32.9
		c3.6-1.5,7.3-3,11-4.4c3.7-1.4,7.5-2.9,11.3-4.3c1.5-0.5,2.9-1.1,4.4-1.6c0.9-0.3,1.8-0.6,2.6-0.9c0,0,0,0,0.1,0
		c1.5-0.5,3-1,4.5-1.6c1.6-0.5,3.2-1.1,4.8-1.6c0.4-0.1,0.8-0.3,1.2-0.4c1.9-0.6,3.7-1.2,5.6-1.8h0c0.5-0.2,1-0.3,1.5-0.5
		c27.4,8.8,53.2,19.1,77.1,30.5c5,2.4,10,4.9,14.9,7.4c31.9,15,67,25.8,104.2,31.4c0,0,0,0,0.1,0h0c0.1,0,0.2,0,0.3,0
		c19.6,3,39.8,4.5,60.5,4.5c48.4,0,94.4-8.5,136-23.9c20.5-12,43-23.1,67-32.9c15.5-6.4,31.7-12.3,48.5-17.6
		c74.6-23.9,161.2-37.6,253.5-37.6c94.4,0,182.8,14.3,258.5,39.2c26.1,8.6,50.7,18.4,73.6,29.4c5,2.4,10,4.9,14.9,7.4
		c48.8,22.9,105.1,36,165,36s116.3-13.1,165-36c4.9-2.5,9.8-5,14.9-7.4c24.3-11.7,50.6-22,78.6-31h0
		c74.6-23.9,161.2-37.6,253.5-37.6c92.7,0,179.6,13.8,254.5,37.9h0c22.4,7.2,43.8,15.3,63.8,24.3c13.1,5.9,25.7,12.1,37.7,18.6
		c45.7,19.3,97.3,30.2,151.9,30.2c45.5,0,88.9-7.5,128.5-21.2c8-2.8,15.8-5.7,23.4-9c12-6.6,24.6-12.8,37.7-18.6
		c20.4-9.1,42.1-17.4,64.8-24.7c74.6-23.9,161.2-37.5,253.5-37.5C3648,57.5,3690.8,60.6,3731.5,66.5z"/>
</g>
</svg>
